<?xml version="1.0" encoding="UTF-8"?>
<svg id="Camada_1" data-name="Camada 1" xmlns="http://www.w3.org/2000/svg" viewBox="0 0 128.2 62.91">
  <defs>
    <style>
      .cls-1 {
        fill: #009fe3;
        stroke-width: 0px;
      }

      .cls-2 {
        fill: none;
        stroke: #009fe3;
        stroke-miterlimit: 10;
      }
    </style>
  </defs>
  <g>
    <path class="cls-1" d="M4.98,60.5v.43c0,.54-.19,1.01-.58,1.4s-.85.58-1.39.58H0v-7.79h3.01c.54,0,1.01.19,1.39.58s.58.85.58,1.4v.42c0,.58-.22,1.08-.67,1.49.45.42.67.91.67,1.49ZM3.97,57.51v-.4c0-.27-.1-.51-.29-.7s-.42-.29-.69-.29H.98v2.38h2c.27,0,.5-.1.69-.29s.29-.42.29-.69ZM3.97,60.93v-.41c0-.27-.1-.51-.29-.7s-.42-.29-.69-.29H1v2.39h1.99c.27,0,.5-.1.69-.29s.29-.42.29-.69Z"/>
    <path class="cls-1" d="M9.61,61.91l1.65-1.05v-3.11c0-.14.05-.25.14-.35s.21-.15.35-.15.25.05.35.15.14.22.14.35v4.67c0,.13-.05.25-.15.35s-.21.15-.35.15-.25-.05-.35-.15-.15-.21-.15-.35v-.39l-.85.56c-.34.21-.67.32-1.02.32h-.46c-.4,0-.75-.14-1.04-.42-.29-.28-.44-.62-.46-1.03l-.15-3.71c0-.13.04-.24.14-.34s.22-.15.35-.15.25.05.34.15.15.21.15.35l.13,3.64c.01.35.21.53.6.53h.6Z"/>
    <path class="cls-1" d="M18.49,62.91h-2.98c-.14,0-.25-.05-.35-.15s-.14-.22-.14-.35.05-.25.14-.35.21-.15.35-.15h.98v-5.81h-1c-.14,0-.25-.05-.35-.14s-.14-.21-.14-.35.05-.25.14-.35.21-.14.35-.14h1.5c.13,0,.25.05.35.15s.15.21.15.35v6.3h1c.13,0,.25.05.35.15s.15.21.15.35-.05.25-.14.35-.21.15-.35.15Z"/>
    <path class="cls-1" d="M23.23,59.36h1.93c.11,0,.26.02.46.07v-.7c-.01-.14-.06-.25-.16-.35-.1-.1-.21-.14-.35-.14h-1.87c-.13,0-.25-.05-.35-.15-.1-.1-.15-.21-.15-.35s.05-.25.14-.35c.1-.1.21-.14.35-.14h1.87c.41,0,.75.14,1.04.43.29.29.44.63.45,1.05l.12,3.69c0,.14-.05.25-.15.35s-.21.14-.35.14c-.14,0-.26-.05-.36-.14s-.15-.21-.15-.35l-.83.49h-1.67c-.41,0-.77-.14-1.06-.43s-.43-.64-.43-1.05v-.57c0-.41.15-.76.44-1.05s.64-.44,1.05-.44ZM25.7,61.28l-.03-.42c0-.14-.05-.26-.15-.35-.09-.09-.21-.14-.35-.14h-1.94c-.14,0-.25.05-.35.14s-.14.21-.14.35v.55c0,.13.05.25.15.35s.21.15.35.15h1.39l1.07-.63ZM24.86,55.17c.07-.03.14-.05.22-.05.14,0,.26.05.35.16s.13.22.13.35c0,.21-.09.36-.28.45l-1.79.83c-.07.03-.14.05-.22.05-.14,0-.26-.05-.35-.16s-.13-.22-.13-.35c0-.21.09-.36.28-.45l1.79-.83Z"/>
    <path class="cls-1" d="M29.02,62.42v-4.67c0-.14.05-.25.14-.35s.21-.15.35-.15.25.05.35.15.14.22.14.36v.62l.8-.69c.33-.28.66-.42.97-.42h.72c.41,0,.75.14,1.04.43s.43.64.43,1.04v.26c0,.14-.05.26-.14.36s-.21.15-.35.15-.25-.05-.35-.14-.14-.21-.14-.35v-.28c0-.14-.05-.25-.14-.35s-.21-.14-.35-.14h-.64c-.14,0-.29.07-.46.22l-1.4,1.21v2.75c0,.14-.05.25-.15.35s-.21.14-.35.14-.25-.05-.35-.14-.14-.21-.14-.35Z"/>
    <path class="cls-1" d="M40.24,62.9h-3c-.14,0-.25-.05-.35-.14s-.14-.21-.14-.35.05-.25.14-.35.21-.15.35-.15h1.01v-3.67h-1c-.14,0-.25-.05-.35-.15s-.14-.21-.14-.35.05-.25.14-.35.21-.15.35-.15h1.5c.14,0,.25.05.35.15s.14.22.14.35v4.17h.98c.14,0,.25.05.35.14s.15.21.15.35-.05.25-.15.35-.21.14-.35.14ZM38.23,54.69h.52c.14,0,.25.05.35.14s.14.21.14.35v.42c0,.14-.05.25-.14.35s-.21.15-.35.15h-.53c-.14,0-.26-.05-.35-.15s-.14-.21-.14-.34v-.43c.01-.14.06-.25.16-.35s.21-.14.35-.14Z"/>
    <path class="cls-1" d="M48.47,59.03v2.08c0,.44-.21.85-.62,1.22s-.84.56-1.29.56h-1.15c-.45,0-.88-.19-1.29-.57s-.62-.79-.62-1.22v-2.08c0-.43.2-.83.6-1.22s.83-.57,1.3-.57h1.15c.44,0,.87.18,1.29.55s.62.79.62,1.24ZM44.5,59.07v1.99c0,.18.06.32.19.43l.37.32c.08.07.2.11.35.11h1.14c.17,0,.32-.06.46-.18l.3-.26c.12-.09.18-.22.18-.39v-1.99c0-.2-.06-.34-.18-.43l-.35-.28c-.12-.1-.25-.15-.41-.15h-1.02c-.22,0-.39.05-.52.16l-.33.29c-.12.1-.18.23-.18.4Z"/>
    <path class="cls-1" d="M62.47,56.12h-3.48v2.4h1.5c.13,0,.25.05.35.15s.15.21.15.35c0,.14-.05.26-.14.36s-.21.15-.35.15h-1.5v2.41h3.49c.13,0,.25.05.35.14s.15.21.15.35-.05.25-.15.35-.22.14-.35.14h-4.46v-7.79h4.46c.14,0,.25.05.35.15s.15.22.15.35-.05.25-.15.35-.22.15-.35.15Z"/>
    <path class="cls-1" d="M69.23,62.91h-2.98c-.14,0-.25-.05-.35-.15s-.14-.22-.14-.35.05-.25.14-.35.21-.15.35-.15h.98v-5.81h-1c-.14,0-.25-.05-.35-.14s-.14-.21-.14-.35.05-.25.14-.35.21-.14.35-.14h1.5c.13,0,.25.05.35.15s.15.21.15.35v6.3h1c.13,0,.25.05.35.15s.15.21.15.35-.05.25-.14.35-.21.15-.35.15Z"/>
    <path class="cls-1" d="M77.46,59.11v1.19c0,.13-.05.25-.15.35s-.21.15-.35.15h-3.48v.29c0,.17.07.31.22.43l.29.24c.16.12.3.18.45.18h2.53c.13,0,.25.05.35.14s.15.21.15.35-.05.25-.15.35-.21.15-.34.15h-2.6c-.17,0-.35-.04-.54-.11s-.33-.15-.42-.23l-.44-.39c-.14-.11-.25-.26-.34-.46s-.14-.38-.14-.54v-2.26c0-.13.05-.3.15-.52s.23-.39.38-.51l.41-.32c.27-.22.57-.33.9-.33h1.38c.35,0,.68.14.98.43l.37.35c.27.24.4.59.4,1.07ZM73.5,59.03v.76h2.99v-.69c0-.18-.06-.32-.17-.42l-.29-.25c-.15-.12-.28-.18-.4-.18h-1.24c-.15,0-.29.05-.42.16l-.29.24c-.13.1-.19.22-.19.38Z"/>
    <path class="cls-1" d="M83.21,62.91h-.98c-.41,0-.76-.14-1.05-.43s-.44-.64-.44-1.04v-3.19h-.5c-.14,0-.25-.05-.35-.14s-.14-.21-.14-.35.05-.25.14-.35.21-.14.35-.14h.52v-1.21c0-.14.05-.25.14-.35s.21-.14.35-.14c.13,0,.24.05.34.15s.15.21.15.35v1.21h1.98c.13,0,.25.05.35.15s.15.21.15.35-.05.25-.15.35-.21.14-.35.14h-1.99v3.19c0,.13.05.25.15.35s.22.15.35.15h.96c.26,0,.44-.14.52-.42s.25-.42.5-.42c.14,0,.26.05.35.14s.14.22.14.36c0,.3-.14.59-.42.89s-.64.44-1.07.44Z"/>
    <path class="cls-1" d="M87,62.42v-4.67c0-.14.05-.25.14-.35s.21-.15.35-.15.25.05.35.15.14.22.14.36v.62l.8-.69c.33-.28.66-.42.97-.42h.72c.41,0,.75.14,1.04.43s.43.64.43,1.04v.26c0,.14-.05.26-.14.36s-.21.15-.35.15-.25-.05-.35-.14-.14-.21-.14-.35v-.28c0-.14-.05-.25-.14-.35s-.21-.14-.35-.14h-.64c-.14,0-.29.07-.46.22l-1.4,1.21v2.75c0,.14-.05.25-.15.35s-.21.14-.35.14-.25-.05-.35-.14-.14-.21-.14-.35Z"/>
    <path class="cls-1" d="M99.21,59.03v2.08c0,.44-.21.85-.62,1.22s-.84.56-1.29.56h-1.15c-.45,0-.88-.19-1.29-.57s-.62-.79-.62-1.22v-2.08c0-.43.2-.83.6-1.22s.83-.57,1.3-.57h1.15c.44,0,.87.18,1.29.55s.62.79.62,1.24ZM96.66,56.17l-1.58.73c-.07.03-.14.05-.21.05-.14,0-.26-.05-.35-.16s-.14-.22-.14-.35c0-.21.09-.36.28-.45l1.79-.83c.08-.03.15-.05.21-.05.08,0,.15.02.22.05l1.79.83c.18.09.28.24.28.45,0,.13-.05.25-.14.35s-.21.16-.35.16c-.07,0-.14-.02-.21-.05l-1.59-.73ZM95.23,59.07v1.99c0,.18.06.32.19.43l.37.32c.08.07.2.11.35.11h1.14c.17,0,.32-.06.46-.18l.3-.26c.12-.09.18-.22.18-.39v-1.99c0-.2-.06-.34-.18-.43l-.35-.28c-.12-.1-.25-.15-.41-.15h-1.02c-.22,0-.39.05-.52.16l-.33.29c-.12.1-.18.23-.18.4Z"/>
    <path class="cls-1" d="M103.83,58.4l-1.34.87v3.15c0,.13-.05.25-.15.35s-.21.15-.35.15-.25-.05-.35-.15-.15-.21-.15-.35v-4.67c0-.14.05-.25.14-.35s.21-.15.35-.15.25.05.35.15.15.22.15.35v.33l.9-.54c.3-.19.64-.29,1.02-.29h.46c.39,0,.73.14,1.01.42.29.28.44.62.45,1.03l.13,3.73c0,.13-.04.25-.14.35s-.21.15-.35.15c-.13,0-.24-.04-.34-.13s-.15-.21-.15-.36l-.15-3.67c-.01-.34-.19-.52-.54-.52h-.48c-.15,0-.31.06-.48.17Z"/>
    <path class="cls-1" d="M112.72,62.9h-3c-.14,0-.25-.05-.35-.14s-.14-.21-.14-.35.05-.25.14-.35.21-.15.35-.15h1.01v-3.67h-1c-.14,0-.25-.05-.35-.15s-.14-.21-.14-.35.05-.25.14-.35.21-.15.35-.15h1.5c.14,0,.25.05.35.15s.14.22.14.35v4.17h.98c.14,0,.25.05.35.14s.15.21.15.35-.05.25-.15.35-.21.14-.35.14ZM110.71,54.69h.52c.14,0,.25.05.35.14s.14.21.14.35v.42c0,.14-.05.25-.14.35s-.21.15-.35.15h-.53c-.14,0-.26-.05-.35-.15s-.14-.21-.14-.34v-.43c.01-.14.06-.25.16-.35s.21-.14.35-.14Z"/>
    <path class="cls-1" d="M120.47,62.91h-2.1c-.37,0-.69-.11-.95-.33l-.96-.83c-.3-.25-.46-.6-.46-1.03v-1.28c-.02-.42.16-.78.52-1.09l.86-.74c.28-.23.57-.34.89-.34h2.21c.14,0,.25.05.35.14s.14.21.14.35-.05.26-.14.35-.21.14-.35.14h-2.12c-.13,0-.26.05-.38.16l-.79.67c-.13.11-.19.26-.19.44v1.2c0,.13.05.24.15.33l.87.74c.11.1.25.15.43.15h2.02c.13,0,.25.05.35.14s.15.21.15.35-.05.25-.14.35-.21.14-.35.14Z"/>
    <path class="cls-1" d="M128.2,59.03v2.08c0,.44-.21.85-.62,1.22s-.84.56-1.29.56h-1.15c-.45,0-.88-.19-1.29-.57s-.62-.79-.62-1.22v-2.08c0-.43.2-.83.6-1.22s.83-.57,1.3-.57h1.15c.44,0,.87.18,1.29.55s.62.79.62,1.24ZM124.22,59.07v1.99c0,.18.06.32.19.43l.37.32c.08.07.2.11.35.11h1.14c.17,0,.32-.06.46-.18l.3-.26c.12-.09.18-.22.18-.39v-1.99c0-.2-.06-.34-.18-.43l-.35-.28c-.12-.1-.25-.15-.41-.15h-1.02c-.22,0-.39.05-.52.16l-.33.29c-.12.1-.18.23-.18.4Z"/>
  </g>
  <g>
    <path class="cls-2" d="M63.04,26.58h-2.2v-2.2c0-.43-.35-.78-.78-.78h-3.87c-.43,0-.78.35-.78.78v2.2h-2.2c-.43,0-.78.35-.78.78v3.87c0,.43.35.78.78.78h2.2v2.2c0,.43.35.78.78.78h3.87c.43,0,.78-.35.78-.78h0v-2.2h2.2c.43,0,.78-.35.78-.78v-3.87c0-.43-.35-.78-.78-.78ZM62.25,30.45h-2.2c-.43,0-.78.35-.78.78v2.2h-2.3v-2.2c0-.43-.35-.78-.78-.78h-2.2v-2.3h2.2c.43,0,.78-.35.78-.78v-2.2h2.3v2.2c0,.43.35.78.78.78h2.2v2.3Z"/>
    <path class="cls-2" d="M79.12,36.82h-6.92V15.53c0-1.79-1.26-3.33-3-3.71l-.86-.19c-1.03-.22-1.76-1.13-1.77-2.18v-2.07h1.78c.43,0,.78-.35.78-.78V1.28c0-.43-.35-.78-.78-.78h-20.45c-.43,0-.78.35-.78.78v5.31c0,.43.35.78.78.78h1.78v2.07c0,1.05-.74,1.96-1.76,2.18l-.86.19c-1.75.38-3,1.93-3,3.71v27.35c0,2.1,1.7,3.8,3.8,3.8h20.56c.52,0,1.04-.11,1.51-.32.55.21,1.13.32,1.72.32h7.49c2.72,0,4.92-2.21,4.92-4.93,0-2.72-2.2-4.92-4.92-4.92h0ZM45.61,21.77h25.02v15.06h-25.02v-15.06ZM48.68,2.07h18.88v3.75h-18.88v-3.75ZM47.37,13.35l.86-.18c1.75-.38,3-1.92,3-3.71v-2.07h13.76v2.07c0,1.79,1.26,3.33,3,3.71l.86.18c1.03.22,1.76,1.13,1.77,2.18v4.67h-25.02v-4.67c0-1.05.74-1.96,1.76-2.18ZM45.61,42.88v-4.49h22.43c-1.78,1.89-1.78,4.83,0,6.72h-20.2c-1.23,0-2.23-1-2.23-2.23ZM68.27,41.75c0-1.85,1.51-3.36,3.36-3.36h2.96v6.72h-2.96c-1.85,0-3.36-1.51-3.36-3.36h0ZM81.5,44.13c-.63.63-1.49.99-2.38.98h-2.96v-6.72h2.96c1.86,0,3.36,1.51,3.36,3.37,0,.89-.35,1.74-.98,2.37h0Z"/>
  </g>
</svg>