<svg width="164" height="78" viewBox="0 0 164 78" fill="none" xmlns="http://www.w3.org/2000/svg">
<path d="M1.584 47V44.312L6 43.256V17.144L1.584 16.088V13.4H18.24V16.088L13.824 17.144V43.304H22.56L25.824 36.632H28.512L27.072 47H1.584ZM30.6488 34.712C30.6488 30.936 31.7048 27.928 33.8168 25.688C35.9608 23.416 38.8568 22.28 42.5048 22.28C46.2168 22.28 49.0168 23.544 50.9048 26.072C52.8248 28.6 53.7848 31.72 53.7848 35.432H38.0408C38.2648 37.8 39.1128 39.848 40.5848 41.576C42.0568 43.272 43.9448 44.12 46.2488 44.12C47.9768 44.12 49.8328 43.752 51.8168 43.016L52.8248 45.752C49.8488 47.064 46.9368 47.72 44.0888 47.72C39.9608 47.72 36.6808 46.52 34.2488 44.12C31.8488 41.688 30.6488 38.552 30.6488 34.712ZM38.0408 32.456L46.1528 31.928C46.1528 31.16 46.1048 30.456 46.0088 29.816C45.9128 29.144 45.6408 28.344 45.1928 27.416C44.3928 26.072 43.4488 25.4 42.3608 25.4C41.0808 25.4 40.0248 26.056 39.1928 27.368C38.7128 28.168 38.3928 29.048 38.2328 30.008C38.0728 30.968 38.0088 31.784 38.0408 32.456ZM56.565 41.048C56.565 38.264 57.701 36.152 59.973 34.712C62.277 33.24 65.989 32.504 71.109 32.504V31.064C71.109 30.104 71.093 29.416 71.061 29C71.061 28.552 70.997 28.024 70.869 27.416C70.741 26.808 70.549 26.376 70.293 26.12C70.069 25.864 69.717 25.64 69.237 25.448C68.757 25.224 68.165 25.112 67.461 25.112L61.365 30.392C59.189 29.144 58.101 27.208 58.101 24.584L59.541 23.96C60.149 23.704 61.333 23.368 63.093 22.952C64.853 22.504 66.565 22.28 68.229 22.28C75.109 22.28 78.549 25.032 78.549 30.536V43.4H82.293V45.464C82.133 45.624 81.909 45.832 81.621 46.088C81.333 46.344 80.709 46.68 79.749 47.096C78.789 47.512 77.797 47.72 76.773 47.72C74.341 47.72 72.533 46.904 71.349 45.272C69.205 46.904 66.869 47.72 64.341 47.72C62.133 47.72 60.277 47.16 58.773 46.04C57.301 44.92 56.565 43.256 56.565 41.048ZM64.293 40.616C64.293 41.544 64.597 42.28 65.205 42.824C65.845 43.368 66.613 43.64 67.509 43.64C68.949 43.64 70.149 43.112 71.109 42.056V35.48C69.317 35.48 67.733 35.96 66.357 36.92C64.981 37.848 64.293 39.08 64.293 40.616ZM83.8898 47V44.456L87.9698 43.496V26.072H83.9378V23.336L87.9698 23.048V19.448C87.9698 15.704 88.8178 12.84 90.5138 10.856C92.2418 8.872 94.7058 7.88 97.9058 7.88C99.2498 7.88 100.658 8.024 102.13 8.312C103.602 8.568 104.738 8.824 105.538 9.08L106.738 9.464C106.77 10.584 106.498 11.688 105.922 12.776C105.378 13.832 104.674 14.584 103.81 15.032L99.8258 11C99.1858 11 98.6258 11.096 98.1458 11.288C97.6978 11.48 97.2338 11.848 96.7538 12.392C96.3058 12.936 95.9538 13.8 95.6978 14.984C95.4738 16.168 95.3618 17.656 95.3618 19.448V22.568L101.938 22.136V26.072H95.3618V43.496L101.026 44.456V47H83.8898ZM103.704 47V44.456L107.784 43.496V12.968H103.704V10.424L111.384 8.6H115.176V43.496L119.256 44.456V47H103.704ZM121.352 34.712C121.352 30.936 122.408 27.928 124.52 25.688C126.664 23.416 129.56 22.28 133.208 22.28C136.92 22.28 139.72 23.544 141.608 26.072C143.528 28.6 144.488 31.72 144.488 35.432H128.744C128.968 37.8 129.816 39.848 131.288 41.576C132.76 43.272 134.648 44.12 136.952 44.12C138.68 44.12 140.536 43.752 142.52 43.016L143.528 45.752C140.552 47.064 137.64 47.72 134.792 47.72C130.664 47.72 127.384 46.52 124.952 44.12C122.552 41.688 121.352 38.552 121.352 34.712ZM128.744 32.456L136.856 31.928C136.856 31.16 136.808 30.456 136.712 29.816C136.616 29.144 136.344 28.344 135.896 27.416C135.096 26.072 134.152 25.4 133.064 25.4C131.784 25.4 130.728 26.056 129.896 27.368C129.416 28.168 129.096 29.048 128.936 30.008C128.776 30.968 128.712 31.784 128.744 32.456ZM147.172 26.36V24.44L155.332 18.632H157.108V23.24L163.06 23V26.36H157.108V40.088C157.108 41.656 157.284 42.76 157.636 43.4C157.988 44.04 158.708 44.36 159.796 44.36C160.596 44.36 161.668 44.072 163.012 43.496L163.78 46.184C161.86 47.208 159.828 47.72 157.684 47.72C152.372 47.72 149.716 45.256 149.716 40.328V26.36H147.172Z" fill="#9BBA34"/>
<path d="M44.032 61.6C44.032 58.8 44.776 56.64 46.264 55.12C47.768 53.6 49.96 52.84 52.84 52.84C53.608 52.84 54.44 52.936 55.336 53.128C56.232 53.304 56.96 53.52 57.52 53.776V58.216H56.176L55.12 54.832C54.576 54.736 54.12 54.688 53.752 54.688C51.752 54.688 50.296 55.248 49.384 56.368C48.472 57.472 48.016 59.216 48.016 61.6C48.016 63.968 48.448 65.712 49.312 66.832C50.176 67.952 51.52 68.512 53.344 68.512C53.728 68.512 54.176 68.472 54.688 68.392L56.464 64.768H57.808L57.184 69.184C56.624 69.488 55.904 69.76 55.024 70C54.16 70.24 53.296 70.36 52.432 70.36C49.744 70.36 47.672 69.6 46.216 68.08C44.76 66.544 44.032 64.384 44.032 61.6ZM66.022 70.36C65.11 70.36 64.254 70.2 63.454 69.88C62.67 69.56 61.99 69.12 61.414 68.56C60.838 68 60.382 67.328 60.046 66.544C59.71 65.76 59.542 64.904 59.542 63.976C59.542 63.048 59.71 62.2 60.046 61.432C60.382 60.648 60.838 59.976 61.414 59.416C61.99 58.856 62.67 58.424 63.454 58.12C64.254 57.8 65.11 57.64 66.022 57.64C66.934 57.64 67.782 57.8 68.566 58.12C69.35 58.424 70.03 58.856 70.606 59.416C71.198 59.976 71.654 60.648 71.974 61.432C72.31 62.2 72.478 63.048 72.478 63.976C72.478 64.888 72.31 65.736 71.974 66.52C71.654 67.304 71.198 67.984 70.606 68.56C70.03 69.12 69.35 69.56 68.566 69.88C67.782 70.2 66.934 70.36 66.022 70.36ZM63.406 63.976C63.406 65.48 63.622 66.664 64.054 67.528C64.502 68.376 65.158 68.8 66.022 68.8C66.886 68.8 67.534 68.376 67.966 67.528C68.414 66.664 68.638 65.48 68.638 63.976C68.638 62.488 68.414 61.32 67.966 60.472C67.534 59.624 66.886 59.2 66.022 59.2C65.158 59.2 64.502 59.624 64.054 60.472C63.622 61.32 63.406 62.488 63.406 63.976ZM73.5006 70V68.728L75.5406 68.248V52.984H73.5006V51.712L77.3406 50.8H79.2366V68.248L81.2766 68.728V70H73.5006ZM81.985 70V68.728L84.025 68.248V52.984H81.985V51.712L85.825 50.8H87.721V68.248L89.761 68.728V70H81.985ZM90.8088 63.856C90.8088 61.968 91.3368 60.464 92.3928 59.344C93.4648 58.208 94.9128 57.64 96.7368 57.64C98.5928 57.64 99.9928 58.272 100.937 59.536C101.897 60.8 102.377 62.36 102.377 64.216H94.5048C94.6168 65.4 95.0408 66.424 95.7768 67.288C96.5128 68.136 97.4568 68.56 98.6088 68.56C99.4728 68.56 100.401 68.376 101.393 68.008L101.897 69.376C100.409 70.032 98.9528 70.36 97.5288 70.36C95.4648 70.36 93.8248 69.76 92.6088 68.56C91.4088 67.344 90.8088 65.776 90.8088 63.856ZM94.5048 62.728L98.5608 62.464C98.5608 62.08 98.5368 61.728 98.4888 61.408C98.4408 61.072 98.3048 60.672 98.0808 60.208C97.6808 59.536 97.2088 59.2 96.6648 59.2C96.0248 59.2 95.4968 59.528 95.0808 60.184C94.8408 60.584 94.6808 61.024 94.6008 61.504C94.5208 61.984 94.4888 62.392 94.5048 62.728ZM103.863 63.952C103.863 62.096 104.471 60.584 105.687 59.416C106.919 58.232 108.367 57.64 110.031 57.64C111.423 57.64 112.791 57.976 114.135 58.648C114.087 59.976 113.503 60.952 112.383 61.576L110.319 59.2H110.175C109.503 59.392 108.911 59.888 108.399 60.688C107.887 61.472 107.631 62.576 107.631 64C107.615 65.6 107.975 66.8 108.711 67.6C109.399 68.256 110.295 68.584 111.399 68.584C111.863 68.584 112.311 68.544 112.743 68.464C113.191 68.384 113.647 68.272 114.111 68.128L114.399 69.544C113.103 70.088 111.775 70.36 110.415 70.36C108.607 70.36 107.063 69.784 105.783 68.632C104.503 67.48 103.863 65.92 103.863 63.952ZM115.531 59.68V58.72L119.611 55.816H120.499V58.12L123.475 58V59.68H120.499V66.544C120.499 67.328 120.587 67.88 120.763 68.2C120.939 68.52 121.299 68.68 121.843 68.68C122.243 68.68 122.779 68.536 123.451 68.248L123.835 69.592C122.875 70.104 121.859 70.36 120.787 70.36C118.131 70.36 116.803 69.128 116.803 66.664V59.68H115.531ZM124.65 70V68.728L126.69 68.248V60.184H124.65V58.912L128.49 58H130.386V68.248L132.426 68.728V70H124.65ZM126.306 54.304C126.306 53.68 126.522 53.16 126.954 52.744C127.386 52.312 127.914 52.096 128.538 52.096C129.178 52.096 129.706 52.312 130.122 52.744C130.554 53.16 130.77 53.68 130.77 54.304C130.77 54.944 130.554 55.48 130.122 55.912C129.706 56.344 129.178 56.56 128.538 56.56C127.914 56.56 127.386 56.344 126.954 55.912C126.522 55.48 126.306 54.944 126.306 54.304ZM139.92 70.36C139.008 70.36 138.152 70.2 137.352 69.88C136.568 69.56 135.888 69.12 135.312 68.56C134.736 68 134.28 67.328 133.944 66.544C133.608 65.76 133.44 64.904 133.44 63.976C133.44 63.048 133.608 62.2 133.944 61.432C134.28 60.648 134.736 59.976 135.312 59.416C135.888 58.856 136.568 58.424 137.352 58.12C138.152 57.8 139.008 57.64 139.92 57.64C140.832 57.64 141.68 57.8 142.464 58.12C143.248 58.424 143.928 58.856 144.504 59.416C145.096 59.976 145.552 60.648 145.872 61.432C146.208 62.2 146.376 63.048 146.376 63.976C146.376 64.888 146.208 65.736 145.872 66.52C145.552 67.304 145.096 67.984 144.504 68.56C143.928 69.12 143.248 69.56 142.464 69.88C141.68 70.2 140.832 70.36 139.92 70.36ZM137.304 63.976C137.304 65.48 137.52 66.664 137.952 67.528C138.4 68.376 139.056 68.8 139.92 68.8C140.784 68.8 141.432 68.376 141.864 67.528C142.312 66.664 142.536 65.48 142.536 63.976C142.536 62.488 142.312 61.32 141.864 60.472C141.432 59.624 140.784 59.2 139.92 59.2C139.056 59.2 138.4 59.624 137.952 60.472C137.52 61.32 137.304 62.488 137.304 63.976ZM147.9 70V68.728L149.94 68.248V60.184H147.9V58.912L151.74 58H153.636V59.176C154.612 58.152 155.82 57.64 157.26 57.64C157.884 57.64 158.444 57.736 158.94 57.928C159.452 58.104 159.876 58.36 160.212 58.696C160.564 59.032 160.836 59.432 161.028 59.896C161.22 60.36 161.316 60.864 161.316 61.408V68.248L163.356 68.728V70H156.06V68.728L157.62 68.248V62.08C157.62 61.584 157.588 61.184 157.524 60.88C157.476 60.576 157.388 60.344 157.26 60.184C157.132 60.008 156.956 59.896 156.732 59.848C156.524 59.784 156.26 59.752 155.94 59.752C155.332 59.752 154.564 60.104 153.636 60.808V68.248L155.196 68.728V70H147.9Z" fill="#34B1BA"/>
</svg>
