<svg xmlns="http://www.w3.org/2000/svg" data-name="Layer 1" viewBox="0 0 168 168" id="pills"><circle cx="2" cy="149.5" r="2" fill="#2d4356"></circle><path fill="#2d4356" d="M11 147.5H8a2 2 0 0 0 0 4h3a2 2 0 0 0 0-4zm149 0h-3a2 2 0 0 0 0 4h3a2 2 0 0 0 0-4z"></path><circle cx="166" cy="149.5" r="2" fill="#2d4356"></circle><path fill="#0bceb2" d="M118.154 155.5h-8.308a2.006 2.006 0 0 0 0 4h8.308a2.006 2.006 0 0 0 0-4zm-60 0h-8.308a2.006 2.006 0 0 0 0 4h8.308a2.006 2.006 0 0 0 0-4zm45.846 0H64a2 2 0 0 0 0 4h15.94v2H72a2 2 0 0 0 0 4h25a2 2 0 0 0 0-4h-8.94v-2H104a2 2 0 0 0 0-4z"></path><circle cx="2" cy="149.5" r="2" fill="#2d4356"></circle><path fill="#2d4356" d="M11 147.5H8a2 2 0 0 0 0 4h3a2 2 0 0 0 0-4zm149 0h-3a2 2 0 0 0 0 4h3a2 2 0 0 0 0-4z"></path><circle cx="166" cy="149.5" r="2" fill="#2d4356"></circle><path fill="#0bceb2" d="M118.154 155.5h-8.308a2.006 2.006 0 0 0 0 4h8.308a2.006 2.006 0 0 0 0-4zm-60 0h-8.308a2.006 2.006 0 0 0 0 4h8.308a2.006 2.006 0 0 0 0-4zm45.846 0H64a2 2 0 0 0 0 4h15.94v2H72a2 2 0 0 0 0 4h25a2 2 0 0 0 0-4h-8.94v-2H104a2 2 0 0 0 0-4zm15.98-82.495a6.998 6.998 0 0 0 2.704-.544l10.161-4.25a7.01 7.01 0 0 0-5.445-12.92l-10.161 4.25a6.986 6.986 0 0 0-3.744 9.163 7.036 7.036 0 0 0 6.484 4.301zm-2.813-8.148a2.97 2.97 0 0 1 1.615-1.626l10.161-4.25a3.02 3.02 0 0 1 3.974 3.915 2.97 2.97 0 0 1-1.615 1.626l-10.161 4.248a2.997 2.997 0 0 1-1.162.235 3.03 3.03 0 0 1-2.798-1.854 2.972 2.972 0 0 1-.014-2.294zm-17.77 1.8 2.557 8.356a6.966 6.966 0 0 0-.053-5.299 6.982 6.982 0 0 0-2.504-3.057zm11.884 27.64a6.998 6.998 0 0 0 2.705-.545l10.161-4.25a6.986 6.986 0 0 0 3.744-9.163 7.026 7.026 0 0 0-9.189-3.757l-10.161 4.25a6.958 6.958 0 0 0-3.695 3.631l2.674 8.737a7.058 7.058 0 0 0 3.761 1.096zm-2.812-8.15a2.97 2.97 0 0 1 1.615-1.625l10.161-4.25a2.998 2.998 0 0 1 1.162-.234 3.03 3.03 0 0 1 2.798 1.854 2.986 2.986 0 0 1-1.6 3.92l-10.162 4.25a2.997 2.997 0 0 1-1.162.234 3.03 3.03 0 0 1-2.798-1.854 2.972 2.972 0 0 1-.014-2.294zm5.437 20.956-1.89.79 1.177 3.844 2.256-.943a7.01 7.01 0 0 0-5.445-12.92l-.934.39 1.176 3.844 1.301-.544a2.998 2.998 0 0 1 1.162-.235 3.029 3.029 0 0 1 2.798 1.854 2.986 2.986 0 0 1-1.601 3.92zm-3.307-58.68a7.026 7.026 0 0 0-9.189-3.757l-7.752 3.242 1.177 3.843 8.118-3.394a2.998 2.998 0 0 1 1.162-.235 3.029 3.029 0 0 1 2.798 1.854 2.986 2.986 0 0 1-1.6 3.92l-8.708 3.641 1.177 3.844 9.073-3.794a6.986 6.986 0 0 0 3.744-9.164z"></path><path fill="#2d4356" d="M93.555 33.5a4.015 4.015 0 0 1 1.526.303l46.41 18.973a4.018 4.018 0 0 1 2.211 5.226l-26.844 65.71.62 2.027a11.75 11.75 0 0 1-.262 7.672l30.19-73.896a8.013 8.013 0 0 0-4.401-10.442L96.595 30.1a7.957 7.957 0 0 0-8.03 1.165l1.382 4.516a3.98 3.98 0 0 1 3.608-2.281Z"></path><path fill="#0bceb2" d="M45.42 64.941a10.888 10.888 0 0 0 7.369-13.6 11.027 11.027 0 0 0-10.56-7.753 11.16 11.16 0 0 0-3.2.47 10.888 10.888 0 0 0-7.369 13.6 11.027 11.027 0 0 0 10.56 7.754 11.16 11.16 0 0 0 3.2-.47zm-9.935-8.453a6.757 6.757 0 0 1 .51-5.203 6.96 6.96 0 0 1 4.18-3.394 7.171 7.171 0 0 1 2.054-.303 7.033 7.033 0 0 1 2.795.602l-8.68 10.068a6.743 6.743 0 0 1-.859-1.77zm12.62-5.746a6.683 6.683 0 0 1 .348 6.972 6.96 6.96 0 0 1-4.179 3.395 7.167 7.167 0 0 1-2.053.303 7.035 7.035 0 0 1-2.796-.602zm19.085 7.204a11.16 11.16 0 0 0 3.2-.47 10.888 10.888 0 0 0 7.369-13.6 11.027 11.027 0 0 0-10.56-7.754 11.158 11.158 0 0 0-3.2.47 10.888 10.888 0 0 0-7.369 13.6 11.027 11.027 0 0 0 10.56 7.754zm6.744-12.9a6.757 6.757 0 0 1-.51 5.203 6.96 6.96 0 0 1-4.18 3.394 7.167 7.167 0 0 1-2.054.303 7.035 7.035 0 0 1-2.795-.602l8.68-10.068a6.745 6.745 0 0 1 .859 1.77zM60.966 43.82a6.96 6.96 0 0 1 4.179-3.395 7.17 7.17 0 0 1 2.054-.303 7.034 7.034 0 0 1 2.795.602l-8.68 10.068a6.683 6.683 0 0 1-.348-6.972zm-7.992 45.802a10.888 10.888 0 0 0 7.368-13.6 11.027 11.027 0 0 0-10.56-7.754 11.16 11.16 0 0 0-3.2.47 10.888 10.888 0 0 0-7.368 13.6 11.027 11.027 0 0 0 10.56 7.754 11.16 11.16 0 0 0 3.2-.47zm-9.935-8.454a6.757 6.757 0 0 1 .51-5.203 6.96 6.96 0 0 1 4.18-3.394 7.171 7.171 0 0 1 2.054-.303 7.034 7.034 0 0 1 2.794.602l-8.68 10.068a6.743 6.743 0 0 1-.858-1.77zm12.62-5.746a6.683 6.683 0 0 1 .348 6.972 6.96 6.96 0 0 1-4.18 3.395 7.166 7.166 0 0 1-2.053.303 7.034 7.034 0 0 1-2.795-.602zm15.893-14.15a10.888 10.888 0 0 0-7.368 13.6 11.027 11.027 0 0 0 10.56 7.754 11.16 11.16 0 0 0 3.2-.47 10.888 10.888 0 0 0 7.368-13.6 11.027 11.027 0 0 0-10.56-7.754 11.158 11.158 0 0 0-3.2.47zm9.935 8.454a6.757 6.757 0 0 1-.51 5.203 6.96 6.96 0 0 1-4.18 3.394 7.167 7.167 0 0 1-2.053.303 7.035 7.035 0 0 1-2.796-.602l8.68-10.068a6.745 6.745 0 0 1 .86 1.77zm-3.94-4.322-8.68 10.068a6.684 6.684 0 0 1-.348-6.972 6.96 6.96 0 0 1 4.18-3.395 7.169 7.169 0 0 1 2.054-.303 7.033 7.033 0 0 1 2.794.602zm-17.02 48.898a10.888 10.888 0 0 0 7.369-13.6 11.027 11.027 0 0 0-10.56-7.754 11.16 11.16 0 0 0-3.2.47 10.888 10.888 0 0 0-7.369 13.6 11.027 11.027 0 0 0 10.56 7.754 11.16 11.16 0 0 0 3.2-.47zm-9.935-8.454a6.757 6.757 0 0 1 .51-5.203 6.96 6.96 0 0 1 4.18-3.394 7.171 7.171 0 0 1 2.054-.303 7.034 7.034 0 0 1 2.795.602l-8.68 10.068a6.743 6.743 0 0 1-.859-1.77zm12.62-5.746a6.683 6.683 0 0 1 .348 6.973 6.96 6.96 0 0 1-4.179 3.394 7.167 7.167 0 0 1-2.054.303 7.034 7.034 0 0 1-2.795-.602zm15.894-14.15a10.888 10.888 0 0 0-7.369 13.6 11.027 11.027 0 0 0 10.56 7.754 11.16 11.16 0 0 0 3.2-.47 10.888 10.888 0 0 0 7.368-13.6 11.027 11.027 0 0 0-10.56-7.753 11.158 11.158 0 0 0-3.2.47zm9.935 8.454a6.757 6.757 0 0 1-.51 5.203 6.96 6.96 0 0 1-4.18 3.395 7.167 7.167 0 0 1-2.054.302 7.034 7.034 0 0 1-2.795-.602l8.68-10.068a6.744 6.744 0 0 1 .859 1.77zm-3.94-4.322-8.68 10.068a6.683 6.683 0 0 1-.349-6.972 6.96 6.96 0 0 1 4.18-3.395 7.169 7.169 0 0 1 2.054-.302 7.033 7.033 0 0 1 2.795.601zm-17.02 48.898a10.888 10.888 0 0 0 7.368-13.6 11.027 11.027 0 0 0-10.56-7.754 11.16 11.16 0 0 0-3.2.47 10.888 10.888 0 0 0-7.368 13.6 11.027 11.027 0 0 0 10.56 7.754 11.16 11.16 0 0 0 3.2-.47zm-9.936-8.454a6.757 6.757 0 0 1 .51-5.202 6.96 6.96 0 0 1 4.18-3.395 7.171 7.171 0 0 1 2.054-.303 7.034 7.034 0 0 1 2.795.602l-8.68 10.068a6.743 6.743 0 0 1-.859-1.77zm12.62-5.746a6.684 6.684 0 0 1 .349 6.973 6.96 6.96 0 0 1-4.18 3.394 7.167 7.167 0 0 1-2.053.303 7.034 7.034 0 0 1-2.796-.602zm15.894-14.15a10.888 10.888 0 0 0-7.369 13.601 11.027 11.027 0 0 0 10.56 7.753 11.16 11.16 0 0 0 3.2-.47 10.888 10.888 0 0 0 7.369-13.6 11.027 11.027 0 0 0-10.56-7.753 11.157 11.157 0 0 0-3.2.47zm9.935 8.454a6.757 6.757 0 0 1-.51 5.203 6.96 6.96 0 0 1-4.18 3.395 7.167 7.167 0 0 1-2.053.302 7.035 7.035 0 0 1-2.796-.601l8.68-10.069a6.743 6.743 0 0 1 .859 1.77zm-3.94-4.322-8.68 10.069a6.683 6.683 0 0 1-.348-6.973 6.96 6.96 0 0 1 4.179-3.395 7.169 7.169 0 0 1 2.054-.302 7.033 7.033 0 0 1 2.795.601z"></path><path fill="#2d4356" d="M150.721 147.5h-39.35a7.997 7.997 0 0 0 .486-.97l5.126-12.548c-.123.277-.246.554-.391.825a11.9 11.9 0 0 1-6.562 5.619l-1.876 4.591a4.008 4.008 0 0 1-5.235 2.18l-6.519-2.665-6.105 1.826 2.794 1.142H72.511l35.784-10.7a7.919 7.919 0 0 0 5.36-9.89L83.73 29.139a8.02 8.02 0 0 0-7.68-5.639 8.115 8.115 0 0 0-2.327.342l-48.02 14.357a7.919 7.919 0 0 0-5.358 9.891l29.923 97.771a7.839 7.839 0 0 0 .74 1.639h-33.73a2.017 2.017 0 1 0 0 4H150.72a2.017 2.017 0 1 0 0-4zm-96.627-2.81L24.17 46.92a3.83 3.83 0 0 1 .29-2.95 3.978 3.978 0 0 1 2.39-1.939L74.87 27.674a4.124 4.124 0 0 1 1.181-.174 4.04 4.04 0 0 1 3.855 2.81l29.923 97.77a3.83 3.83 0 0 1-.29 2.95 3.978 3.978 0 0 1-2.39 1.939L59.13 147.326a4.122 4.122 0 0 1-1.181.174 4.04 4.04 0 0 1-3.855-2.81zM7.304 8.5a3 3 0 1 0-3-3 3.003 3.003 0 0 0 3 3zm0-4.5a1.5 1.5 0 1 1-1.5 1.5 1.501 1.501 0 0 1 1.5-1.5zm151 64.5a2 2 0 1 0 2 2 2.002 2.002 0 0 0-2-2zm0 3a1 1 0 1 1 1-1 1.001 1.001 0 0 1-1 1zm-2-69a2 2 0 1 0 2 2 2.002 2.002 0 0 0-2-2zm0 3a1 1 0 1 1 1-1 1.001 1.001 0 0 1-1 1zm-23 29a2 2 0 1 0 2 2 2.002 2.002 0 0 0-2-2zm0 3a1 1 0 1 1 1-1 1.001 1.001 0 0 1-1 1zm-102-9a2 2 0 1 0-2 2 2.002 2.002 0 0 0 2-2zm-3 0a1 1 0 1 1 1 1 1.001 1.001 0 0 1-1-1z"></path><path fill="#0bceb2" d="m10.888 68.511 1.487-1.955-.939-.532-.955 2.19h-.031l-.97-2.175-.955.548 1.471 1.909v.031l-2.301-.297v1.064l2.316-.297v.031l-1.486 1.908.891.564 1.018-2.206h.031l.939 2.19.986-.563-1.502-1.878v-.031l2.362.282V68.23l-2.362.312v-.031zM57.081 4.567l-.856 1.099.514.324.586-1.27h.017l.541 1.261.568-.324-.865-1.082v-.018l1.36.163v-.613l-1.36.18v-.018l.856-1.126-.54-.306-.55 1.261h-.018l-.559-1.253-.55.316.847 1.099v.018l-1.325-.171v.613l1.334-.171v.018zM166.305 36.213V35.17l-2.317.307v-.031l1.458-1.918-.921-.522-.936 2.148h-.031l-.951-2.133-.937.538 1.443 1.872v.031l-2.257-.292v1.043l2.272-.291v.031l-1.458 1.872.875.553.998-2.165h.03l.921 2.149.967-.552-1.473-1.842v-.031l2.317.276zM104.748 11.086l1.258-1.655-.795-.45-.807 1.853h-.027l-.82-1.84-.809.464 1.245 1.615v.026l-1.946-.251v.9l1.959-.252v.027l-1.258 1.615.755.477.861-1.867h.026l.795 1.853.834-.476-1.271-1.589v-.027l1.998.239v-.9l-1.998.264v-.026z"></path></svg>