<svg width="83" height="83" viewBox="0 0 83 83" fill="none" xmlns="http://www.w3.org/2000/svg">
<path d="M36.2217 71.7133C27.295 78.2366 14.935 77.2067 6.695 69.31C-2.23167 60.3833 -2.23167 45.9633 6.695 37.0367L36.565 7.16665C41.3717 2.35999 47.2083 0.299988 53.045 0.299988C58.8817 0.299988 64.7183 2.35999 69.1817 6.82332C77.0783 14.72 78.1083 27.4233 71.585 36.35C68.495 35.32 65.405 34.6333 61.9717 34.6333C60.9417 34.6333 59.9117 34.6333 58.8817 34.9767L61.6283 32.23C66.435 27.4233 66.435 19.5267 61.6283 14.72C59.225 11.9733 56.135 10.6 53.045 10.6C49.6117 10.6 46.5217 11.9733 44.1183 14.3767L31.0717 27.08L44.4617 40.47C38.2817 45.62 34.1617 53.1733 34.1617 61.7567C34.505 65.5333 35.1917 68.6233 36.2217 71.7133ZM73.9883 45.2767C70.555 42.8733 66.435 41.5 61.9717 41.5C50.6417 41.5 41.3717 50.77 41.3717 62.1C41.3717 66.5633 42.745 70.6833 45.1483 74.1167L73.9883 45.2767ZM78.795 50.0833L49.955 78.9233C53.3883 81.3266 57.5083 82.7 61.9717 82.7C73.3017 82.7 82.5717 73.43 82.5717 62.1C82.5717 57.6367 81.1983 53.5167 78.795 50.0833Z" fill="#86BC42"/>
</svg>
