<svg width="345" height="118" viewBox="0 0 345 118" fill="none" xmlns="http://www.w3.org/2000/svg">
<path d="M120.366 35.6327C122.328 36.0508 123.904 37.0318 125.093 38.5755C126.283 40.0871 126.878 41.8238 126.878 43.7857C126.878 46.6159 125.881 48.8672 123.887 50.5396C121.926 52.1799 119.176 53 115.638 53H99.8627V19.1338H115.107C118.549 19.1338 121.234 19.9218 123.164 21.4977C125.126 23.0736 126.107 25.2124 126.107 27.9139C126.107 29.908 125.576 31.5643 124.515 32.8829C123.485 34.2015 122.102 35.1181 120.366 35.6327ZM108.112 32.8347H113.515C114.866 32.8347 115.895 32.5452 116.603 31.9663C117.343 31.3552 117.712 30.4708 117.712 29.313C117.712 28.1552 117.343 27.2707 116.603 26.6596C115.895 26.0486 114.866 25.743 113.515 25.743H108.112V32.8347ZM114.191 46.3425C115.574 46.3425 116.635 46.037 117.375 45.4259C118.147 44.7827 118.533 43.8661 118.533 42.6761C118.533 41.4861 118.131 40.5535 117.326 39.8781C116.555 39.2027 115.477 38.865 114.094 38.865H108.112V46.3425H114.191ZM158.245 26.0807V53H149.995V49.3336C149.159 50.5236 148.017 51.4884 146.57 52.2281C145.155 52.9357 143.579 53.2895 141.842 53.2895C139.784 53.2895 137.967 52.8392 136.391 51.9387C134.815 51.006 133.593 49.6713 132.724 47.9345C131.856 46.1978 131.422 44.1556 131.422 41.8078V26.0807H139.623V40.6982C139.623 42.4992 140.089 43.8983 141.022 44.8953C141.955 45.8923 143.209 46.3908 144.785 46.3908C146.393 46.3908 147.664 45.8923 148.596 44.8953C149.529 43.8983 149.995 42.4992 149.995 40.6982V26.0807H158.245ZM172.42 17.3006V53H164.17V17.3006H172.42ZM176.758 39.4921C176.758 36.7262 177.272 34.298 178.301 32.2075C179.363 30.117 180.794 28.5089 182.595 27.3833C184.396 26.2576 186.406 25.6948 188.625 25.6948C190.523 25.6948 192.179 26.0807 193.594 26.8526C195.042 27.6245 196.151 28.6376 196.923 29.8919V26.0807H205.173V53H196.923V49.1888C196.119 50.4432 194.993 51.4562 193.546 52.2281C192.131 53 190.475 53.3859 188.577 53.3859C186.39 53.3859 184.396 52.8231 182.595 51.6975C180.794 50.5396 179.363 48.9155 178.301 46.825C177.272 44.7023 176.758 42.258 176.758 39.4921ZM196.923 39.5404C196.923 37.482 196.344 35.8579 195.186 34.6679C194.061 33.4779 192.678 32.8829 191.037 32.8829C189.397 32.8829 187.998 33.4779 186.84 34.6679C185.715 35.8257 185.152 37.4338 185.152 39.4921C185.152 41.5505 185.715 43.1907 186.84 44.4128C187.998 45.6028 189.397 46.1978 191.037 46.1978C192.678 46.1978 194.061 45.6028 195.186 44.4128C196.344 43.2229 196.923 41.5987 196.923 39.5404ZM197.55 19.375L185.924 24.2475V18.5549L197.55 12.9588V19.375ZM219.39 30.5673C220.355 29.0878 221.561 27.93 223.008 27.0938C224.456 26.2255 226.064 25.7913 227.833 25.7913V34.5232H225.565C223.507 34.5232 221.963 34.9734 220.934 35.8739C219.905 36.7423 219.39 38.2861 219.39 40.5052V53H211.141V26.0807H219.39V30.5673ZM235.924 23.2827C234.477 23.2827 233.287 22.8646 232.354 22.0284C231.454 21.16 231.004 20.0987 231.004 18.8444C231.004 17.5579 231.454 16.4966 232.354 15.6604C233.287 14.792 234.477 14.3578 235.924 14.3578C237.34 14.3578 238.497 14.792 239.398 15.6604C240.331 16.4966 240.797 17.5579 240.797 18.8444C240.797 20.0987 240.331 21.16 239.398 22.0284C238.497 22.8646 237.34 23.2827 235.924 23.2827ZM240.025 26.0807V53H231.776V26.0807H240.025ZM258.257 53.3859C255.62 53.3859 253.24 52.8231 251.117 51.6975C249.027 50.5718 247.37 48.9637 246.148 46.8732C244.958 44.7827 244.363 42.3384 244.363 39.5404C244.363 36.7745 244.974 34.3463 246.196 32.2558C247.418 30.1331 249.091 28.5089 251.214 27.3833C253.336 26.2576 255.716 25.6948 258.353 25.6948C260.991 25.6948 263.371 26.2576 265.493 27.3833C267.616 28.5089 269.288 30.1331 270.51 32.2558C271.733 34.3463 272.344 36.7745 272.344 39.5404C272.344 42.3063 271.717 44.7505 270.462 46.8732C269.24 48.9637 267.552 50.5718 265.397 51.6975C263.274 52.8231 260.894 53.3859 258.257 53.3859ZM258.257 46.2461C259.833 46.2461 261.168 45.6672 262.261 44.5093C263.387 43.3515 263.95 41.6952 263.95 39.5404C263.95 37.3855 263.403 35.7292 262.309 34.5714C261.248 33.4136 259.929 32.8347 258.353 32.8347C256.745 32.8347 255.411 33.4136 254.349 34.5714C253.288 35.6971 252.757 37.3534 252.757 39.5404C252.757 41.6952 253.272 43.3515 254.301 44.5093C255.362 45.6672 256.681 46.2461 258.257 46.2461Z" fill="#86BC42"/>
<path d="M108.112 71.743V78.5935H119.16V84.9615H108.112V92.3908H120.607V99H99.8627V65.1338H120.607V71.743H108.112ZM134.212 63.3006V99H125.963V63.3006H134.212ZM165.566 85.1062C165.566 85.8781 165.518 86.6821 165.421 87.5183H146.751C146.88 89.1907 147.411 90.4772 148.343 91.3777C149.308 92.2461 150.482 92.6802 151.865 92.6802C153.923 92.6802 155.355 91.8119 156.159 90.0752H164.939C164.488 91.844 163.668 93.436 162.478 94.8512C161.321 96.2663 159.857 97.3758 158.088 98.1799C156.319 98.9839 154.341 99.3859 152.154 99.3859C149.517 99.3859 147.169 98.8231 145.111 97.6975C143.053 96.5718 141.445 94.9637 140.287 92.8732C139.129 90.7827 138.55 88.3384 138.55 85.5404C138.55 82.7423 139.113 80.298 140.239 78.2075C141.396 76.117 143.004 74.5089 145.063 73.3833C147.121 72.2576 149.485 71.6948 152.154 71.6948C154.76 71.6948 157.075 72.2415 159.101 73.335C161.128 74.4285 162.703 75.9884 163.829 78.0145C164.987 80.0407 165.566 82.4046 165.566 85.1062ZM157.123 82.9353C157.123 81.5202 156.641 80.3945 155.676 79.5583C154.711 78.7221 153.505 78.304 152.058 78.304C150.675 78.304 149.501 78.706 148.536 79.5101C147.604 80.3141 147.025 81.4558 146.8 82.9353H157.123ZM184.921 92.0048V99H180.724C177.733 99 175.401 98.2764 173.729 96.8291C172.057 95.3497 171.22 92.9536 171.22 89.641V78.9312H167.94V72.0807H171.22V65.5198H179.47V72.0807H184.873V78.9312H179.47V89.7375C179.47 90.5415 179.663 91.1204 180.049 91.4742C180.435 91.828 181.078 92.0048 181.978 92.0048H184.921ZM197.766 76.5673C198.731 75.0878 199.937 73.93 201.384 73.0938C202.831 72.2255 204.439 71.7913 206.208 71.7913V80.5232H203.941C201.882 80.5232 200.339 80.9734 199.31 81.8739C198.28 82.7423 197.766 84.2861 197.766 86.5052V99H189.516V72.0807H197.766V76.5673ZM222.405 99.3859C219.768 99.3859 217.388 98.8231 215.265 97.6975C213.174 96.5718 211.518 94.9637 210.296 92.8732C209.106 90.7827 208.511 88.3384 208.511 85.5404C208.511 82.7745 209.122 80.3463 210.344 78.2558C211.566 76.1331 213.239 74.5089 215.361 73.3833C217.484 72.2576 219.864 71.6948 222.501 71.6948C225.139 71.6948 227.519 72.2576 229.641 73.3833C231.764 74.5089 233.436 76.1331 234.658 78.2558C235.881 80.3463 236.492 82.7745 236.492 85.5404C236.492 88.3063 235.865 90.7505 234.61 92.8732C233.388 94.9637 231.7 96.5718 229.545 97.6975C227.422 98.8231 225.042 99.3859 222.405 99.3859ZM222.405 92.2461C223.981 92.2461 225.315 91.6672 226.409 90.5093C227.535 89.3515 228.097 87.6952 228.097 85.5404C228.097 83.3855 227.551 81.7292 226.457 80.5714C225.396 79.4136 224.077 78.8347 222.501 78.8347C220.893 78.8347 219.559 79.4136 218.497 80.5714C217.436 81.6971 216.905 83.3534 216.905 85.5404C216.905 87.6952 217.42 89.3515 218.449 90.5093C219.51 91.6672 220.829 92.2461 222.405 92.2461ZM223.177 66.0987L215.699 70.0545V64.3619L223.177 60.5508L230.654 64.3619V70.0545L223.177 66.0987ZM257.271 71.7913C260.422 71.7913 262.931 72.8204 264.796 74.8788C266.694 76.905 267.643 79.703 267.643 83.273V99H259.441V84.3825C259.441 82.5815 258.975 81.1825 258.042 80.1855C257.11 79.1884 255.855 78.6899 254.28 78.6899C252.704 78.6899 251.449 79.1884 250.517 80.1855C249.584 81.1825 249.118 82.5815 249.118 84.3825V99H240.868V72.0807H249.118V75.6507C249.954 74.4607 251.079 73.528 252.495 72.8526C253.91 72.145 255.502 71.7913 257.271 71.7913ZM277.524 69.2827C276.077 69.2827 274.887 68.8646 273.954 68.0284C273.054 67.16 272.603 66.0987 272.603 64.8444C272.603 63.5579 273.054 62.4966 273.954 61.6604C274.887 60.792 276.077 60.3578 277.524 60.3578C278.939 60.3578 280.097 60.792 280.998 61.6604C281.93 62.4966 282.397 63.5579 282.397 64.8444C282.397 66.0987 281.93 67.16 280.998 68.0284C280.097 68.8646 278.939 69.2827 277.524 69.2827ZM281.625 72.0807V99H273.375V72.0807H281.625ZM285.963 85.5404C285.963 82.7423 286.526 80.298 287.651 78.2075C288.809 76.117 290.401 74.5089 292.427 73.3833C294.486 72.2576 296.833 71.6948 299.471 71.6948C302.848 71.6948 305.662 72.5792 307.913 74.3481C310.197 76.117 311.692 78.6095 312.4 81.8257H303.619C302.88 79.7674 301.449 78.7382 299.326 78.7382C297.814 78.7382 296.608 79.3332 295.708 80.5232C294.807 81.681 294.357 83.3534 294.357 85.5404C294.357 87.7274 294.807 89.4158 295.708 90.6058C296.608 91.7636 297.814 92.3425 299.326 92.3425C301.449 92.3425 302.88 91.3134 303.619 89.255H312.4C311.692 92.4069 310.197 94.8833 307.913 96.6844C305.63 98.4854 302.815 99.3859 299.471 99.3859C296.833 99.3859 294.486 98.8231 292.427 97.6975C290.401 96.5718 288.809 94.9637 287.651 92.8732C286.526 90.7827 285.963 88.3384 285.963 85.5404ZM329.066 99.3859C326.429 99.3859 324.049 98.8231 321.926 97.6975C319.835 96.5718 318.179 94.9637 316.957 92.8732C315.767 90.7827 315.172 88.3384 315.172 85.5404C315.172 82.7745 315.783 80.3463 317.005 78.2558C318.227 76.1331 319.9 74.5089 322.022 73.3833C324.145 72.2576 326.525 71.6948 329.162 71.6948C331.8 71.6948 334.18 72.2576 336.302 73.3833C338.425 74.5089 340.097 76.1331 341.319 78.2558C342.542 80.3463 343.153 82.7745 343.153 85.5404C343.153 88.3063 342.525 90.7505 341.271 92.8732C340.049 94.9637 338.361 96.5718 336.206 97.6975C334.083 98.8231 331.703 99.3859 329.066 99.3859ZM329.066 92.2461C330.642 92.2461 331.976 91.6672 333.07 90.5093C334.196 89.3515 334.758 87.6952 334.758 85.5404C334.758 83.3855 334.212 81.7292 333.118 80.5714C332.057 79.4136 330.738 78.8347 329.162 78.8347C327.554 78.8347 326.22 79.4136 325.158 80.5714C324.097 81.6971 323.566 83.3534 323.566 85.5404C323.566 87.6952 324.081 89.3515 325.11 90.5093C326.171 91.6672 327.49 92.2461 329.066 92.2461Z" fill="#86BC42"/>
<path d="M36.2217 88.7133C27.295 95.2366 14.935 94.2067 6.695 86.31C-2.23167 77.3833 -2.23167 62.9633 6.695 54.0367L36.565 24.1667C41.3717 19.36 47.2083 17.3 53.045 17.3C58.8817 17.3 64.7183 19.36 69.1817 23.8233C77.0783 31.72 78.1083 44.4233 71.585 53.35C68.495 52.32 65.405 51.6333 61.9717 51.6333C60.9417 51.6333 59.9117 51.6333 58.8817 51.9767L61.6283 49.23C66.435 44.4233 66.435 36.5267 61.6283 31.72C59.225 28.9733 56.135 27.6 53.045 27.6C49.6117 27.6 46.5217 28.9733 44.1183 31.3767L31.0717 44.08L44.4617 57.47C38.2817 62.62 34.1617 70.1733 34.1617 78.7567C34.505 82.5333 35.1917 85.6233 36.2217 88.7133ZM73.9883 62.2767C70.555 59.8733 66.435 58.5 61.9717 58.5C50.6417 58.5 41.3717 67.77 41.3717 79.1C41.3717 83.5633 42.745 87.6833 45.1483 91.1167L73.9883 62.2767ZM78.795 67.0833L49.955 95.9233C53.3883 98.3266 57.5083 99.7 61.9717 99.7C73.3017 99.7 82.5717 90.43 82.5717 79.1C82.5717 74.6367 81.1983 70.5167 78.795 67.0833Z" fill="#86BC42"/>
</svg>
