<svg width="24" height="25" viewBox="0 0 24 25" fill="none" xmlns="http://www.w3.org/2000/svg">
<g id="icon-skip">
<path id="Vector" d="M1.45962 20.7086L9.18126 12.987L1.45962 5.26534C0.11282 3.91838 2.64254 1.89118 3.738 2.98697L12.4526 11.7015C13.8436 13.0925 13.9444 12.7806 12.4526 14.2724L3.738 22.987C2.76075 23.9642 0.295143 21.8731 1.45962 20.7086Z" fill="url(#paint0_linear_488_150)"/>
<path id="Vector_2" d="M11.2799 20.7086L19.0016 12.987L11.2799 5.26534C9.93313 3.91838 12.4629 1.89118 13.5583 2.98697L22.2729 11.7015C23.6639 13.0925 23.7647 12.7806 22.2729 14.2724L13.5583 22.987C12.5811 23.9642 10.1155 21.8731 11.2799 20.7086Z" fill="url(#paint1_linear_488_150)"/>
</g>
<defs>
<linearGradient id="paint0_linear_488_150" x1="12.533" y1="4.44359" x2="-2.56705" y2="12.6659" gradientUnits="userSpaceOnUse">
<stop stop-color="#6CE0C4"/>
<stop offset="1" stop-color="#04634D"/>
</linearGradient>
<linearGradient id="paint1_linear_488_150" x1="22.3533" y1="4.44359" x2="7.25327" y2="12.6659" gradientUnits="userSpaceOnUse">
<stop stop-color="#6CE0C4"/>
<stop offset="1" stop-color="#04634D"/>
</linearGradient>
</defs>
</svg>
