<svg width="57" height="50" viewBox="0 0 57 50" fill="none" xmlns="http://www.w3.org/2000/svg">
<path d="M31.8535 32.2408C31.8535 33.6484 32.8243 34.8782 34.4261 34.8782C36.028 34.8782 37.1121 33.697 37.1121 32.3379C37.1121 30.7846 36.2545 29.5225 34.4261 29.5225C32.6949 29.5225 31.8535 30.9949 31.8535 32.2408Z" fill="#41D1AE"/>
<path d="M36.6966 27.1487C36.6966 28.5563 37.6675 29.786 39.2693 29.786C40.8711 29.786 41.9552 28.6049 41.9552 27.2458C41.9552 25.6925 41.0977 24.4304 39.2693 24.4304C37.538 24.4304 36.6966 25.9028 36.6966 27.1487Z" fill="#41D1AE"/>
<path d="M41.5398 22.2829C41.5398 23.6906 42.5106 24.9203 44.1125 24.9203C45.7143 24.9203 46.7984 23.7391 46.7984 22.38C46.7984 20.8267 45.9408 19.5646 44.1125 19.5646C42.3812 19.5646 41.5398 21.037 41.5398 22.2829Z" fill="#41D1AE"/>
<path d="M46.3603 17.2813C46.3603 18.689 47.3311 19.9187 48.933 19.9187C50.5348 19.9187 51.6189 18.7375 51.6189 17.3784C51.6189 15.8251 50.7613 14.563 48.933 14.563C47.2017 14.563 46.3603 16.0354 46.3603 17.2813Z" fill="#41D1AE"/>
<path d="M37.4661 8.22868C37.4661 9.63636 38.4369 10.8661 40.0388 10.8661C41.6406 10.8661 42.7247 9.6849 42.7247 8.32576C42.7247 6.77246 41.8671 5.5104 40.0388 5.5104C38.3075 5.5104 37.4661 6.9828 37.4661 8.22868Z" fill="#41D1AE"/>
<path d="M32.6003 13.2755C32.6003 14.6832 33.5711 15.9129 35.173 15.9129C36.7748 15.9129 37.8589 14.7317 37.8589 13.3726C37.8589 11.8193 37.0014 10.5572 35.173 10.5572C33.4417 10.5572 32.6003 12.0296 32.6003 13.2755Z" fill="#41D1AE"/>
<path d="M23.581 11.0644V12.8371C23.581 13.5044 24.4364 13.9134 24.9738 13.9134H26.4812M8.32328 11.0644V12.8371C8.32328 13.3963 7.6583 13.9134 7.21535 13.9134H5.0628C3.57615 13.9134 1 16.1532 1 17.712L1 23.3585M8.32328 11.0644H6.32901V4.89162H25.512V11.0644H8.32328ZM1 23.3585H30.8617M1 23.3585V38.6121M30.8617 23.3585V38.6121M30.8617 23.3585V20.3763M30.8617 38.6121H1M30.8617 38.6121V43.0677M1 38.6121L1 44.8471C0.999242 46.3371 2.8442 49 5.15286 49H26.8113C28.8658 49 30.8617 46.6691 30.8617 44.8584V43.0677M26.4812 13.9134H26.9997C28.6717 13.9134 30.8617 16.4283 30.8617 17.712V20.3763M26.4812 13.9134C31.2698 9.12921 33.9546 6.44693 38.7432 1.66279C39.6433 0.763507 42.7383 0.794771 43.6181 1.66279C48.2415 6.22441 50.8337 8.78194 55.4571 13.3436C56.5492 14.421 56.4509 17.7414 55.4571 18.7249C45.852 28.2314 40.4668 33.5613 30.8617 43.0677M29.5075 15.2795H30.6699C33.7192 15.2795 33.8324 20.3763 31.0656 20.3763H30.8617M32.6003 13.2755C32.6003 14.6832 33.5711 15.9129 35.173 15.9129C36.7748 15.9129 37.8589 14.7317 37.8589 13.3726C37.8589 11.8193 37.0014 10.5572 35.173 10.5572C33.4417 10.5572 32.6003 12.0296 32.6003 13.2755ZM37.4661 8.22868C37.4661 9.63636 38.4369 10.8661 40.0388 10.8661C41.6406 10.8661 42.7247 9.6849 42.7247 8.32576C42.7247 6.77246 41.8671 5.5104 40.0388 5.5104C38.3075 5.5104 37.4661 6.9828 37.4661 8.22868ZM46.3603 17.2813C46.3603 18.689 47.3311 19.9187 48.933 19.9187C50.5348 19.9187 51.6189 18.7375 51.6189 17.3784C51.6189 15.8251 50.7613 14.563 48.933 14.563C47.2017 14.563 46.3603 16.0354 46.3603 17.2813ZM41.5398 22.2829C41.5398 23.6906 42.5106 24.9203 44.1125 24.9203C45.7143 24.9203 46.7984 23.7391 46.7984 22.38C46.7984 20.8267 45.9408 19.5646 44.1125 19.5646C42.3812 19.5646 41.5398 21.037 41.5398 22.2829ZM36.6966 27.1487C36.6966 28.5563 37.6675 29.786 39.2693 29.786C40.8711 29.786 41.9552 28.6049 41.9552 27.2458C41.9552 25.6925 41.0977 24.4304 39.2693 24.4304C37.538 24.4304 36.6966 25.9028 36.6966 27.1487ZM31.8535 32.2408C31.8535 33.6484 32.8243 34.8782 34.4261 34.8782C36.028 34.8782 37.1121 33.697 37.1121 32.3379C37.1121 30.7846 36.2545 29.5225 34.4261 29.5225C32.6949 29.5225 31.8535 30.9949 31.8535 32.2408Z" stroke="#41D1AE"/>
</svg>
