<svg width="57" height="56" viewBox="0 0 57 56" fill="none" xmlns="http://www.w3.org/2000/svg">
<g id="pill 1" clip-path="url(#clip0_470_41)">
<g id="Group">
<g id="Group_2">
<g id="Vector">
<path d="M51.8566 4.64341C48.8621 1.64916 44.8806 0 40.6457 0C36.4106 0 32.4288 1.64927 29.4338 4.64406L17.2902 16.7879L17.289 16.7888L17.288 16.7899L5.14431 28.9338C-1.03756 35.1158 -1.03767 45.1746 5.14388 51.3567C8.13835 54.351 12.1198 56 16.3546 56C20.5897 56 24.5715 54.3507 27.5664 51.3559L51.8561 27.0662C58.038 20.8845 58.0383 10.8256 51.8566 4.64341ZM26.0093 49.7989C23.4304 52.3777 20.0016 53.798 16.3547 53.798C12.708 53.798 9.27956 52.3779 6.70094 49.7996C1.37788 44.4762 1.3781 35.8143 6.70138 30.4909L18.0675 19.1245L37.3754 38.4324L26.0093 49.7989ZM50.299 25.5091L38.9328 36.8755L19.6248 17.5675L30.9911 6.20123C33.57 3.62239 36.9988 2.20216 40.6457 2.20216C44.2925 2.20216 47.7209 3.62217 50.2997 6.20058C55.6226 11.5241 55.6224 20.1859 50.299 25.5091Z" fill="url(#paint0_linear_470_41)"/>
<path d="M26.0093 49.7989C23.4304 52.3777 20.0016 53.798 16.3547 53.798C12.708 53.798 9.27956 52.3779 6.70094 49.7996C1.37788 44.4762 1.3781 35.8143 6.70138 30.4909L18.0675 19.1245L37.3754 38.4324L26.0093 49.7989Z" fill="url(#paint1_linear_470_41)"/>
<path d="M52.0123 14.5939C51.9519 13.9887 51.4116 13.5469 50.8075 13.6076C50.2023 13.6681 49.7609 14.2075 49.8212 14.8126C50.118 17.7855 49.0781 20.7007 46.968 22.8109C46.538 23.2408 46.538 23.938 46.968 24.3679C47.183 24.583 47.4648 24.6905 47.7465 24.6905C48.0284 24.6905 48.31 24.5829 48.525 24.3679C51.1041 21.7891 52.375 18.2265 52.0123 14.5939Z" fill="url(#paint2_linear_470_41)"/>
<path d="M51.1863 11.2469C50.5768 9.74376 49.6818 8.39549 48.5261 7.23995C48.0961 6.80999 47.3991 6.80999 46.9689 7.23995C46.539 7.6699 46.539 8.36705 46.9689 8.79712C47.915 9.74299 48.6475 10.8457 49.1457 12.0743C49.3192 12.5024 49.7312 12.762 50.1665 12.762C50.3042 12.762 50.4443 12.7359 50.5799 12.681C51.1434 12.4524 51.4149 11.8104 51.1863 11.2469Z" fill="url(#paint3_linear_470_41)"/>
</g>
</g>
</g>
</g>
<defs>
<linearGradient id="paint0_linear_470_41" x1="51.995" y1="4.81898" x2="3.32466" y2="48.5514" gradientUnits="userSpaceOnUse">
<stop stop-color="#6CE0C4"/>
<stop offset="1" stop-color="#04634D"/>
</linearGradient>
<linearGradient id="paint1_linear_470_41" x1="51.995" y1="4.81898" x2="3.32466" y2="48.5514" gradientUnits="userSpaceOnUse">
<stop stop-color="#6CE0C4"/>
<stop offset="1" stop-color="#04634D"/>
</linearGradient>
<linearGradient id="paint2_linear_470_41" x1="51.995" y1="4.81898" x2="3.32466" y2="48.5514" gradientUnits="userSpaceOnUse">
<stop stop-color="#6CE0C4"/>
<stop offset="1" stop-color="#04634D"/>
</linearGradient>
<linearGradient id="paint3_linear_470_41" x1="51.995" y1="4.81898" x2="3.32466" y2="48.5514" gradientUnits="userSpaceOnUse">
<stop stop-color="#6CE0C4"/>
<stop offset="1" stop-color="#04634D"/>
</linearGradient>
<clipPath id="clip0_470_41">
<rect width="56" height="56" fill="white" transform="translate(0.5)"/>
</clipPath>
</defs>
</svg>
